<svg width="371" height="779" viewBox="0 0 371 779" fill="none" xmlns="http://www.w3.org/2000/svg">
<path d="M370.061 4.17233e-06L274.061 0C267.709 0 262.561 5.14873 262.561 11.5L262.561 264.379L233.621 235.439L231.5 237.561L262.561 268.621V500C262.561 526.786 240.847 548.5 214.061 548.5H82.5608C54.1181 548.5 31.0608 571.557 31.0608 600L31.0606 773.129L2.12132 744.189L0 746.311L32.5606 778.871L65.1213 746.311L63 744.189L34.0606 773.129L34.0608 600C34.0608 573.214 55.7749 551.5 82.5608 551.5H214.061C242.503 551.5 265.561 528.443 265.561 500V268.621L296.621 237.561L294.5 235.439L265.561 264.379L265.561 11.5C265.561 6.80558 269.366 3 274.061 3L370.061 3V4.17233e-06Z" fill="black"/>
</svg>
