<svg width="1085" height="328" viewBox="0 0 1085 328" fill="none" xmlns="http://www.w3.org/2000/svg">
<g clip-path="url(#clip0_4875_44437)">
<path d="M232.76 78.28H104.35C76.8793 78.28 54.61 100.549 54.61 128.02V256.43C54.61 283.901 76.8793 306.17 104.35 306.17H232.76C260.231 306.17 282.5 283.901 282.5 256.43V128.02C282.5 100.549 260.231 78.28 232.76 78.28Z" fill="#58C86F" stroke="black" stroke-width="20.25" stroke-linecap="round" stroke-linejoin="round"/>
<path d="M188.27 33.79H59.86C32.3894 33.79 10.12 56.0594 10.12 83.53V211.94C10.12 239.411 32.3894 261.68 59.86 261.68H188.27C215.741 261.68 238.01 239.411 238.01 211.94V83.53C238.01 56.0594 215.741 33.79 188.27 33.79Z" fill="white" stroke="black" stroke-width="20.25" stroke-linecap="round" stroke-linejoin="round"/>
<path d="M124.07 227.82V121.88" stroke="black" stroke-width="14.55" stroke-linecap="round" stroke-linejoin="round"/>
<path d="M76.6899 117.56H88.4699C108.11 117.56 124.06 133.51 124.06 153.15V164.93H112.28C92.6399 164.93 76.6899 148.98 76.6899 129.34V117.56Z" fill="#F9B55C" stroke="black" stroke-width="16.57" stroke-linecap="round" stroke-linejoin="round"/>
<path d="M76.6899 165.31H88.4699C108.11 165.31 124.06 181.26 124.06 200.9V212.68H112.28C92.6399 212.68 76.6899 196.73 76.6899 177.09V165.31Z" fill="#F9B55C" stroke="black" stroke-width="16.57" stroke-linecap="round" stroke-linejoin="round"/>
<path d="M135.86 164.93H124.08V153.15C124.08 133.51 140.03 117.56 159.67 117.56H171.45V129.34C171.45 148.98 155.5 164.93 135.86 164.93Z" fill="#F9B55C" stroke="black" stroke-width="16.57" stroke-linecap="round" stroke-linejoin="round"/>
<path d="M135.86 212.69H124.08V200.91C124.08 181.27 140.03 165.32 159.67 165.32H171.45V177.1C171.45 196.74 155.5 212.69 135.86 212.69Z" fill="#F9B55C" stroke="black" stroke-width="16.57" stroke-linecap="round" stroke-linejoin="round"/>
<path d="M132.401 126.321L124.071 134.651L115.741 126.321C101.854 112.434 101.854 89.877 115.741 75.9894L124.071 67.6597L132.401 75.9894C146.288 89.877 146.288 112.434 132.401 126.321Z" fill="#F9B55C" stroke="black" stroke-width="16.57" stroke-linecap="round" stroke-linejoin="round"/>
<path d="M424.83 68.6L411.59 68.08C403.85 68.08 396.46 72.32 389.41 80.8V135.73C389.41 137.28 388.91 138.54 387.91 139.51C386.91 140.49 385.66 140.97 384.17 140.97H364.92C363.37 140.97 362.11 140.48 361.14 139.51C360.16 138.54 359.68 137.28 359.68 135.73V52.09C359.68 50.54 360.18 49.27 361.18 48.26C362.18 47.25 363.43 46.76 364.92 46.76H384.17C385.72 46.76 386.98 47.26 387.95 48.26C388.92 49.26 389.41 50.54 389.41 52.09V57.51C395.26 53.27 400.89 50.13 406.3 48.1C411.72 46.07 418.81 45.05 427.57 45.05C429.12 45.05 430.39 45.55 431.4 46.55C432.4 47.55 432.9 48.8 432.9 50.29V63.36C432.9 64.91 432.4 66.17 431.4 67.14C430.4 68.12 429.12 68.6 427.57 68.6H424.82H424.83Z" fill="black"/>
<path d="M452.25 130.15C443.42 121.78 439.01 109.73 439.01 94C439.01 78.27 443.45 66.18 452.33 57.72C461.21 49.27 473.53 45.04 489.29 45.04C505.05 45.04 517.34 49.15 526.17 57.38C534.99 65.6 539.41 77.4 539.41 92.75V97.65C539.41 99.2 538.91 100.47 537.91 101.48C536.91 102.48 535.63 102.98 534.08 102.98H469.35C469.92 110.03 471.94 115.16 475.41 118.37C478.88 121.58 484.42 123.18 492.04 123.18C499.66 123.18 504.88 121.46 507.69 118.02C510.5 114.58 513.96 112.83 518.09 112.78H530.9C532.45 112.78 533.72 113.28 534.73 114.28C535.73 115.28 536.23 116.56 536.23 118.11C536.23 134.56 520.56 142.75 489.21 142.69C473.39 142.69 461.07 138.51 452.25 130.14V130.15ZM469.19 84.85H509.16C508.59 71.33 501.95 64.56 489.26 64.56C476.57 64.56 469.88 71.32 469.19 84.85Z" fill="black"/>
<path d="M549.13 46.77H565.63C568.09 46.77 570.41 47.47 572.59 48.88C574.77 50.28 576.31 52.1 577.23 54.34L600.7 107.89L624.08 54.34C625 52.11 626.54 50.29 628.72 48.88C630.9 47.48 633.22 46.77 635.68 46.77H652.27C654.28 46.77 655.59 47.52 656.22 49C656.51 49.57 656.63 50.3 656.61 51.19C656.58 52.08 656.31 53.12 655.79 54.33L618.66 133.41C617.63 135.64 616.01 137.46 613.8 138.87C611.59 140.27 609.32 140.98 606.97 140.98H594.33C591.98 140.98 589.72 140.28 587.54 138.87C585.36 137.47 583.76 135.65 582.73 133.41L545.59 54.33C545.02 53.07 544.73 52.01 544.73 51.15C544.73 48.23 546.19 46.77 549.11 46.77H549.13Z" fill="black"/>
<path d="M668.96 28.8V25.88C668.96 22.84 669.83 20.44 671.58 18.66C673.33 16.88 675.75 16 678.84 16H689.5C692.54 16 694.94 16.87 696.72 18.62C698.5 20.37 699.39 22.79 699.39 25.88V28.8C699.39 31.84 698.52 34.25 696.77 36.02C695.02 37.8 692.6 38.69 689.51 38.69H678.85C675.81 38.69 673.41 37.8 671.63 36.02C669.85 34.24 668.97 31.84 668.97 28.8H668.96ZM669.3 135.74V54.16C669.3 52.61 669.8 51.35 670.8 50.38C671.8 49.41 673.05 48.92 674.54 48.92H693.8C695.35 48.92 696.61 49.42 697.58 50.42C698.55 51.42 699.04 52.67 699.04 54.16V135.74C699.04 137.29 698.54 138.55 697.54 139.52C696.54 140.5 695.29 140.98 693.8 140.98H674.54C672.99 140.98 671.73 140.49 670.76 139.52C669.78 138.55 669.3 137.29 669.3 135.74Z" fill="black"/>
<path d="M728.44 130.15C719.61 121.78 715.2 109.73 715.2 94C715.2 78.27 719.64 66.18 728.52 57.72C737.4 49.27 749.72 45.04 765.48 45.04C781.24 45.04 793.53 49.15 802.36 57.38C811.18 65.6 815.6 77.4 815.6 92.75V97.65C815.6 99.2 815.1 100.47 814.1 101.48C813.1 102.48 811.82 102.98 810.27 102.98H745.54C746.11 110.03 748.13 115.16 751.6 118.37C755.07 121.58 760.61 123.18 768.23 123.18C775.85 123.18 781.07 121.46 783.88 118.02C786.69 114.58 790.15 112.83 794.28 112.78H807.09C808.64 112.78 809.91 113.28 810.92 114.28C811.92 115.28 812.42 116.56 812.42 118.11C812.42 134.56 796.75 142.75 765.4 142.69C749.58 142.69 737.26 138.51 728.44 130.14V130.15ZM745.38 84.85H785.35C784.78 71.33 778.14 64.56 765.45 64.56C752.76 64.56 746.07 71.32 745.38 84.85Z" fill="black"/>
<path d="M822.49 54.33C822.03 52.84 821.77 51.61 821.72 50.63C821.72 48.11 823.15 46.82 826.02 46.76H842.01C844.7 46.76 847.11 47.43 849.23 48.78C851.35 50.13 852.81 51.98 853.61 54.32L867.71 100.65L881.64 54.32C883.19 49.28 886.45 46.76 891.44 46.76H906.66C911.7 46.76 914.97 49.28 916.46 54.32L930.39 100.65L944.49 54.32C945.29 51.97 946.75 50.12 948.87 48.78C950.99 47.43 953.4 46.76 956.09 46.76H972.08C974.89 46.76 976.32 48.05 976.38 50.63C976.38 51.66 976.12 52.89 975.61 54.33L949.56 133.41C948.76 135.76 947.32 137.61 945.26 138.95C943.2 140.3 940.99 140.97 938.64 140.97H926.52C924.17 140.97 921.93 140.27 919.81 138.86C917.69 137.46 916.29 135.64 915.6 133.4L899.1 82.17L882.51 133.4C881.82 135.63 880.42 137.45 878.3 138.86C876.18 140.26 873.94 140.97 871.59 140.97H859.47C857.12 140.97 854.91 140.3 852.85 138.95C850.79 137.6 849.35 135.76 848.55 133.41L822.5 54.33H822.49Z" fill="black"/>
<path d="M359.67 282.33V169.64C359.67 168.09 360.17 166.82 361.17 165.81C362.17 164.8 363.42 164.31 364.91 164.31H384.16C385.65 164.31 386.9 164.81 387.9 165.81C388.9 166.81 389.4 168.09 389.4 169.64V204.11C399.26 195.8 409.76 191.65 420.9 191.65C432.04 191.65 441.11 195.05 448.11 201.84C455.1 208.63 458.6 219.02 458.6 233V282.34C458.6 283.83 458.1 285.08 457.1 286.08C456.1 287.08 454.82 287.58 453.27 287.58H434.1C432.61 287.58 431.36 287.08 430.36 286.08C429.36 285.08 428.86 283.83 428.86 282.34V233C428.86 219.3 423.39 212.46 412.44 212.46C405.28 212.46 397.6 216.56 389.4 224.75V282.34C389.4 283.83 388.9 285.08 387.9 286.08C386.9 287.08 385.65 287.58 384.16 287.58H364.91C363.42 287.58 362.17 287.08 361.17 286.08C360.17 285.08 359.67 283.83 359.67 282.34V282.33Z" fill="black"/>
<path d="M485.82 281.38C478.23 276.11 474.43 268.66 474.43 259.03C474.43 249.4 478.23 242.01 485.82 236.85C493.41 231.69 503.2 229.11 515.18 229.11H543.63C543.63 222.4 542.23 217.73 539.42 215.1C536.61 212.46 531.7 211.15 524.68 211.15C517.66 211.15 512.73 212.88 509.89 216.35C507.05 219.82 503.57 221.55 499.45 221.55H486.64C485.09 221.55 483.82 221.05 482.81 220.05C481.81 219.05 481.31 217.8 481.31 216.31C481.31 199.86 496.93 191.64 528.16 191.64C541.8 191.64 552.74 194.69 561 200.79C569.25 206.89 573.38 216.34 573.38 229.11V282.32C573.38 283.87 572.89 285.13 571.92 286.1C570.95 287.07 569.68 287.56 568.14 287.56H551.55C550 287.56 548.74 287.06 547.77 286.06C546.79 285.06 546.31 283.81 546.31 282.32V279.66C537.25 286.14 526.81 289.36 514.98 289.33C503.15 289.3 493.43 286.65 485.84 281.38H485.82ZM507.74 251.55C505.42 253.5 504.26 256.02 504.26 259.11C504.26 262.2 505.46 264.76 507.87 266.76C510.28 268.77 513.69 269.77 518.1 269.77C526.92 269.77 535.43 267.19 543.63 262.03V248.62H517.24C513.23 248.62 510.06 249.6 507.74 251.54V251.55Z" fill="black"/>
<path d="M659.68 215.19L646.44 214.67C638.7 214.67 631.31 218.91 624.26 227.39V282.32C624.26 283.87 623.76 285.13 622.76 286.1C621.76 287.08 620.51 287.56 619.02 287.56H599.77C598.22 287.56 596.96 287.07 595.99 286.1C595.01 285.13 594.53 283.87 594.53 282.32V198.68C594.53 197.13 595.03 195.86 596.03 194.85C597.03 193.84 598.28 193.35 599.77 193.35H619.02C620.57 193.35 621.83 193.85 622.8 194.85C623.77 195.85 624.26 197.13 624.26 198.68V204.1C630.11 199.86 635.74 196.72 641.15 194.69C646.57 192.66 653.66 191.64 662.42 191.64C663.97 191.64 665.24 192.14 666.25 193.14C667.25 194.14 667.75 195.39 667.75 196.88V209.95C667.75 211.5 667.25 212.76 666.25 213.73C665.25 214.71 663.97 215.19 662.42 215.19H659.67H659.68Z" fill="black"/>
<path d="M675.66 193.36H692.16C694.62 193.36 696.94 194.06 699.12 195.47C701.3 196.87 702.84 198.69 703.76 200.93L727.23 254.48L750.61 200.93C751.53 198.7 753.07 196.88 755.25 195.47C757.43 194.07 759.75 193.36 762.21 193.36H778.8C780.81 193.36 782.12 194.11 782.75 195.59C783.04 196.16 783.16 196.89 783.14 197.78C783.11 198.67 782.84 199.71 782.32 200.92L745.19 280C744.16 282.23 742.54 284.05 740.33 285.46C738.12 286.86 735.85 287.57 733.5 287.57H720.86C718.51 287.57 716.25 286.87 714.07 285.46C711.89 284.06 710.29 282.24 709.26 280L672.12 200.92C671.55 199.66 671.26 198.6 671.26 197.74C671.26 194.82 672.72 193.36 675.64 193.36H675.66Z" fill="black"/>
<path d="M801.68 276.74C792.85 268.37 788.44 256.32 788.44 240.59C788.44 224.86 792.88 212.77 801.76 204.31C810.64 195.86 822.96 191.63 838.72 191.63C854.48 191.63 866.77 195.74 875.6 203.97C884.42 212.19 888.84 223.99 888.84 239.34V244.24C888.84 245.79 888.34 247.06 887.34 248.07C886.34 249.07 885.06 249.57 883.51 249.57H818.78C819.35 256.62 821.37 261.75 824.84 264.96C828.31 268.17 833.85 269.77 841.47 269.77C849.09 269.77 854.31 268.05 857.12 264.61C859.93 261.17 863.39 259.42 867.52 259.37H880.33C881.88 259.37 883.15 259.87 884.16 260.87C885.16 261.87 885.66 263.15 885.66 264.7C885.66 281.15 869.99 289.34 838.64 289.28C822.82 289.28 810.5 285.1 801.68 276.73V276.74ZM818.62 231.44H858.59C858.02 217.92 851.38 211.15 838.69 211.15C826 211.15 819.31 217.91 818.62 231.44Z" fill="black"/>
<path d="M899.33 219.41C899.33 200.9 914.26 191.64 944.12 191.64C975.52 191.64 991.23 199.86 991.23 216.31C991.23 217.8 990.74 219.05 989.77 220.05C988.8 221.05 987.54 221.55 985.99 221.55H973.18C969.05 221.55 965.58 219.82 962.78 216.35C959.97 212.88 954.44 211.15 946.19 211.15C934.84 211.15 929.17 213.9 929.17 219.4C929.17 221.98 931.39 224.13 935.83 225.85C940.27 227.57 945.69 229.07 952.08 230.36C958.47 231.65 964.85 233.3 971.21 235.3C977.57 237.31 982.97 240.5 987.42 244.88C991.86 249.26 994.08 254.81 994.08 261.51C994.08 280.02 978.32 289.28 946.8 289.28C915.28 289.28 899.52 281.09 899.52 264.7C899.52 263.15 900.02 261.88 901.02 260.87C902.02 259.86 903.3 259.37 904.85 259.37H917.66C921.79 259.37 925.25 261.1 928.06 264.57C930.87 268.04 936.4 269.77 944.65 269.77C957.77 269.77 964.33 267.02 964.33 261.52C964.33 258.94 962.11 256.79 957.67 255.07C953.23 253.35 947.8 251.82 941.38 250.47C934.96 249.12 928.59 247.46 922.25 245.48C915.92 243.5 910.52 240.31 906.05 235.9C901.58 231.49 899.34 225.99 899.34 219.4L899.33 219.41Z" fill="black"/>
<path d="M1054.84 268.92L1066.62 267.89H1069.8C1071.35 267.89 1072.62 268.38 1073.63 269.35C1074.63 270.33 1075.13 271.58 1075.13 273.13V282.33C1075.13 283.59 1074.63 284.72 1073.63 285.73C1072.63 286.73 1071.35 287.35 1069.8 287.58C1063.96 288.73 1056.33 289.3 1046.93 289.3C1022.29 289.3 1009.97 276.41 1009.97 250.62V169.64C1009.97 168.09 1010.47 166.82 1011.47 165.81C1012.47 164.81 1013.72 164.31 1015.21 164.31H1034.47C1035.96 164.31 1037.21 164.81 1038.21 165.81C1039.21 166.81 1039.71 168.09 1039.71 169.64V198.35H1063.69C1065.18 198.35 1066.43 198.84 1067.43 199.81C1068.43 200.79 1068.93 202.04 1068.93 203.59V213.82C1068.93 215.37 1068.43 216.63 1067.43 217.6C1066.43 218.58 1065.18 219.06 1063.69 219.06H1039.71V250.61C1039.71 256.46 1041.09 260.97 1043.84 264.15C1046.59 267.33 1050.26 268.92 1054.84 268.92Z" fill="black"/>
</g>
<defs>
<clipPath id="clip0_4875_44437">
<rect width="1085" height="328" fill="white"/>
</clipPath>
</defs>
</svg>
