<svg width="32" height="32" viewBox="0 0 32 32" fill="none" xmlns="http://www.w3.org/2000/svg">
<g clip-path="url(#clip0_4875_44495)">
<path d="M7.54749 7.0722H20.0753C22.7554 7.0722 24.928 9.24482 24.928 11.9249V24.4527C24.928 27.1328 22.7554 29.3054 20.0753 29.3054H7.54749C4.86743 29.3054 2.69481 27.1328 2.69481 24.4527V11.9249C2.69481 9.24482 4.86743 7.0722 7.54749 7.0722Z" fill="#58C86F" stroke="black" stroke-width="1.97561" stroke-linecap="round" stroke-linejoin="round"/>
<path d="M11.8879 2.73169H24.4157C27.0958 2.73169 29.2684 4.90431 29.2684 7.58438V20.1122C29.2684 22.7922 27.0958 24.9649 24.4157 24.9649H11.8879C9.20788 24.9649 7.03526 22.7922 7.03526 20.1122V7.58438C7.03526 4.90431 9.20788 2.73169 11.8879 2.73169Z" fill="white" stroke="black" stroke-width="1.97561" stroke-linecap="round" stroke-linejoin="round"/>
<path d="M18.1514 21.6615V11.3259" stroke="black" stroke-width="1.41951" stroke-linecap="round" stroke-linejoin="round"/>
<path d="M22.7738 10.9044H21.6245C19.7084 10.9044 18.1523 12.4605 18.1523 14.3766V15.5258H19.3016C21.2177 15.5258 22.7738 13.9697 22.7738 12.0536V10.9044Z" fill="#F9B55C" stroke="black" stroke-width="1.61659" stroke-linecap="round" stroke-linejoin="round"/>
<path d="M22.7738 15.5629H21.6245C19.7084 15.5629 18.1523 17.119 18.1523 19.0351V20.1844H19.3016C21.2177 20.1844 22.7738 18.6283 22.7738 16.7122V15.5629Z" fill="#F9B55C" stroke="black" stroke-width="1.61659" stroke-linecap="round" stroke-linejoin="round"/>
<path d="M17.001 15.5259H18.1503V14.3766C18.1503 12.4605 16.5942 10.9044 14.6781 10.9044H13.5288V12.0537C13.5288 13.9698 15.0849 15.5259 17.001 15.5259Z" fill="#F9B55C" stroke="black" stroke-width="1.61659" stroke-linecap="round" stroke-linejoin="round"/>
<path d="M17.001 20.1854H18.1503V19.0361C18.1503 17.12 16.5942 15.5639 14.6781 15.5639H13.5288V16.7132C13.5288 18.6293 15.0849 20.1854 17.001 20.1854Z" fill="#F9B55C" stroke="black" stroke-width="1.61659" stroke-linecap="round" stroke-linejoin="round"/>
<path d="M17.3386 11.7592L18.1513 12.5718L18.9639 11.7592C20.3188 10.4043 20.3188 8.20362 18.964 6.84874L18.1513 6.03608L17.3386 6.84874C15.9838 8.20363 15.9838 10.4043 17.3386 11.7592Z" fill="#F9B55C" stroke="black" stroke-width="1.61659" stroke-linecap="round" stroke-linejoin="round"/>
</g>
<defs>
<clipPath id="clip0_4875_44495">
<rect width="32" height="32" fill="white" transform="matrix(-1 0 0 1 32 0)"/>
</clipPath>
</defs>
</svg>
