<svg version="1.1" id="Layer_1" xmlns="http://www.w3.org/2000/svg" xmlns:xlink="http://www.w3.org/1999/xlink" x="0px" y="0px"
	 width="100%" viewBox="0 0 1087 398" enable-background="new 0 0 1087 398" xml:space="preserve">
<path fill="#FFFFFF" opacity="1.000000" stroke="none" 
	d="
M754.000000,399.000000 
	C502.666656,399.000000 251.833328,399.000000 1.000000,399.000000 
	C1.000000,266.333344 1.000000,133.666672 1.000000,1.000000 
	C363.333344,1.000000 725.666687,1.000000 1088.000000,1.000000 
	C1088.000000,133.666672 1088.000000,266.333344 1088.000000,399.000000 
	C976.833313,399.000000 865.666687,399.000000 754.000000,399.000000 
M134.500031,131.335922 
	C112.513855,131.339523 90.519989,131.030655 68.547028,131.571198 
	C63.199451,131.702744 57.230988,133.563248 52.744179,136.473145 
	C41.020641,144.076385 37.407688,156.385880 36.324963,169.577637 
	C36.192505,171.191498 37.157925,172.895477 37.614559,174.557709 
	C39.080147,173.672668 40.749714,173.007965 41.980118,171.868881 
	C56.036800,158.855469 75.846756,157.280762 91.522545,168.310547 
	C95.410278,171.046036 98.704926,174.624435 102.773270,178.263611 
	C111.357742,167.805527 122.044380,160.877289 135.972839,160.938843 
	C149.873642,161.000259 160.657562,167.738159 169.510941,178.630798 
	C177.993546,168.260162 188.048981,161.660980 201.229019,161.059464 
	C214.358032,160.460236 224.903030,166.144150 234.685379,176.398102 
	C234.685379,170.704620 235.186630,166.390015 234.594635,162.231003 
	C232.534927,147.760696 221.539749,130.222778 199.951187,131.137527 
	C178.503174,132.046310 156.986588,131.336411 134.500031,131.335922 
M701.159973,215.224838 
	C693.088928,215.884888 685.565796,214.329529 682.555481,205.994919 
	C677.964661,193.284348 677.990540,180.135803 682.722290,167.397873 
	C685.243774,160.610260 690.434204,158.045868 697.858154,158.464584 
	C704.669983,158.848770 707.638367,161.395966 710.251953,168.708115 
	C710.673767,169.888214 711.908997,171.602722 712.832520,171.644318 
	C718.760925,171.911240 724.707214,171.780609 730.620972,171.780609 
	C730.767395,162.552994 726.219727,153.416519 719.301880,148.401062 
	C697.743469,132.771210 666.515869,143.883148 660.015503,169.604233 
	C657.068054,181.266922 657.166138,193.069397 660.108398,204.702942 
	C662.965759,216.000916 669.488037,224.853333 680.657959,228.794235 
	C696.834961,234.501740 712.451294,232.268112 727.122986,223.346390 
	C730.141907,221.510605 731.295288,219.110336 731.199219,215.511642 
	C730.959290,206.524048 731.135071,197.525711 731.103638,188.531845 
	C731.098633,187.102646 730.884033,185.674179 730.763000,184.205017 
	C718.888062,184.205017 707.467957,184.205017 695.871216,184.205017 
	C695.871216,189.024567 695.871216,193.555679 695.871216,198.567917 
	C700.713257,198.567917 705.140015,198.567917 709.505981,198.567917 
	C710.824402,214.123474 710.921204,212.833145 701.159973,215.224838 
M835.883667,197.092590 
	C835.470581,198.231476 835.057495,199.370361 834.381409,201.234192 
	C833.734924,199.401306 833.295654,198.340988 832.984497,197.244324 
	C830.351196,187.963440 827.820190,178.652176 825.043274,169.414734 
	C824.601746,167.945923 823.147522,165.742233 822.057617,165.679321 
	C815.826050,165.319580 809.563049,165.504578 802.690308,165.504578 
	C803.452820,168.009491 803.917969,169.729004 804.496643,171.409424 
	C810.942932,190.129120 817.427307,208.835739 823.854919,227.561874 
	C826.138916,234.216125 822.492981,239.997406 815.539917,240.911514 
	C814.122437,241.097855 812.699158,241.240021 810.997131,241.434769 
	C810.997131,245.104431 811.176697,248.429810 810.943298,251.725952 
	C810.737000,254.640625 811.796814,255.775650 814.686707,256.308105 
	C826.963196,258.570099 836.254578,252.998947 840.801453,240.096817 
	C848.930542,217.030151 856.945190,193.923126 864.984314,170.824860 
	C865.505066,169.328568 865.826538,167.762909 866.444275,165.475922 
	C860.122070,165.475922 854.504639,165.643433 848.904358,165.406723 
	C846.013245,165.284531 844.792847,166.347397 844.041077,169.039963 
	C841.491577,178.171295 838.723938,187.241699 835.883667,197.092590 
M783.498413,204.556473 
	C789.259094,204.556473 795.019775,204.556473 801.012390,204.556473 
	C801.012390,200.473419 801.134338,197.149277 800.993164,193.836380 
	C799.830994,166.570694 777.143677,160.431717 760.119080,166.262131 
	C746.452332,170.942596 741.629028,181.982101 740.474060,195.385452 
	C738.839722,214.351990 749.794800,228.934204 768.036865,231.330109 
	C780.039734,232.906540 790.769165,230.158066 799.523193,220.430984 
	C796.315918,216.634644 793.384583,213.164978 790.387939,209.618011 
	C783.645996,215.558258 776.624573,217.854492 768.679932,214.582352 
	C764.675171,212.932938 762.109680,209.771454 761.639221,204.555832 
	C768.893982,204.555832 775.696655,204.555832 783.498413,204.556473 
M940.351440,221.138351 
	C941.958740,222.578262 943.463623,224.156189 945.189697,225.435883 
	C957.337646,234.442734 977.840576,233.746231 988.353271,223.806656 
	C989.553345,222.671997 990.673218,219.717224 990.049011,218.707428 
	C988.017883,215.421432 985.159912,212.646500 982.643066,209.701599 
	C974.883667,215.860535 967.974792,217.552856 961.473938,214.880859 
	C957.227478,213.135483 954.545166,210.017761 953.732056,204.472000 
	C967.179016,204.472000 980.187622,204.472000 993.756775,204.472000 
	C993.439575,198.728256 993.468201,193.736908 992.832520,188.831650 
	C991.286011,176.897934 983.012756,167.678497 972.113098,165.274200 
	C958.265259,162.219574 945.141602,166.831818 938.374329,176.879547 
	C931.152039,187.602966 930.125610,210.240768 940.351440,221.138351 
M896.397156,205.831329 
	C898.726318,206.702255 901.252930,207.248459 903.340210,208.517319 
	C906.798889,210.619843 906.690857,214.346512 903.410767,216.691391 
	C898.470764,220.222748 890.204285,217.868439 887.759583,212.329742 
	C887.286926,211.258820 886.309021,209.643066 885.507263,209.608688 
	C879.939636,209.370102 874.356995,209.482819 868.793396,209.482819 
	C868.904358,216.668869 871.807800,222.203857 877.596069,226.029556 
	C888.479309,233.222717 900.185303,233.402100 912.024292,229.048340 
	C920.803528,225.819824 925.368835,219.373810 925.346802,211.583878 
	C925.323242,203.254776 920.944580,197.308060 911.657288,194.023590 
	C906.193481,192.091278 900.430603,191.020569 894.859009,189.370712 
	C891.811096,188.468170 889.264526,186.763641 889.889954,182.980118 
	C890.534058,179.083786 893.586182,178.091187 896.919128,177.944733 
	C900.756104,177.776138 903.698608,179.199387 904.988892,183.200211 
	C905.283630,184.113937 906.205566,185.494812 906.872681,185.514542 
	C912.949280,185.694214 919.033447,185.620010 925.191345,185.620010 
	C925.543823,179.689819 923.374817,175.510437 919.803223,172.033295 
	C909.734924,162.231171 887.842773,161.591660 877.188538,170.700073 
	C867.126526,179.302155 868.146912,193.611420 879.725342,199.941757 
	C884.602112,202.608017 890.291260,203.788483 896.397156,205.831329 
M154.766754,224.341171 
	C156.113327,213.606171 157.560089,202.881927 158.714035,192.126266 
	C158.921555,190.192062 158.456665,187.772766 157.396576,186.180328 
	C148.286163,172.494781 128.125015,171.274902 116.519485,183.467529 
	C113.933762,186.184067 112.615845,189.051758 113.163727,192.892685 
	C114.502930,202.281097 115.620491,211.700912 116.868782,221.102585 
	C117.603859,226.638931 118.418259,232.164764 119.270538,238.217743 
	C129.942352,233.825485 139.973373,233.342499 150.159225,237.122528 
	C150.882172,237.390823 153.129364,235.703018 153.408142,234.604980 
	C154.178604,231.570221 154.281387,228.365936 154.766754,224.341171 
M333.743958,179.072891 
	C340.086823,161.477005 332.038422,146.389465 313.612091,144.012466 
	C302.047882,142.520676 290.134674,143.734619 278.135071,143.734619 
	C278.135071,172.545700 278.135071,201.270874 278.135071,230.190704 
	C280.578186,230.190704 282.772430,230.190704 285.346130,230.190704 
	C285.346130,219.664612 285.524414,209.526611 285.258362,199.400284 
	C285.152069,195.354477 286.547333,194.150162 290.418213,194.355072 
	C295.565979,194.627594 300.749054,194.617493 305.897705,194.353333 
	C309.304504,194.178528 311.324982,195.243820 313.021118,198.329590 
	C318.151276,207.662674 323.894379,216.664322 328.868622,226.075272 
	C331.344910,230.760300 334.482544,231.337952 339.573090,229.861328 
	C332.351440,217.443466 325.323425,205.358582 319.153748,194.749634 
	C324.455536,189.158707 328.919556,184.451248 333.743958,179.072891 
M586.046448,229.582291 
	C591.527283,212.641998 597.008118,195.701721 602.488953,178.761429 
	C608.762451,194.833694 613.952698,210.764938 619.045227,226.727356 
	C619.815979,229.143417 620.576050,230.735718 623.690918,230.710449 
	C626.817688,230.685059 627.114929,228.711304 627.709778,226.666595 
	C633.099426,208.139862 638.485291,189.612015 643.841919,171.075714 
	C644.324341,169.406342 644.594543,167.675644 644.953369,166.019577 
	C640.006470,164.487366 637.516602,165.507675 636.392578,170.631958 
	C634.256592,180.370010 631.401245,189.951004 628.815613,199.589447 
	C627.100403,205.983398 625.334595,212.363770 623.257019,219.975311 
	C622.526917,217.916763 622.236450,217.178757 622.001404,216.423492 
	C617.059570,200.540863 612.192383,184.634109 607.068604,168.810440 
	C606.616394,167.413834 604.499268,165.695755 603.150146,165.691208 
	C601.790894,165.686600 599.823975,167.362549 599.184631,168.780670 
	C597.759644,171.941284 597.010193,175.404572 595.961243,178.736923 
	C591.848572,191.802429 587.726440,204.864944 583.297913,218.911636 
	C582.627319,217.226929 582.268005,216.526825 582.065002,215.783981 
	C577.943481,200.702713 573.844604,185.615280 569.730164,170.532074 
	C568.179993,164.849228 567.476807,164.502319 561.084778,166.386810 
	C566.809204,186.170105 572.643127,205.926224 578.174500,225.766678 
	C579.379150,230.087631 581.408264,231.576080 586.046448,229.582291 
M1001.771973,223.406708 
	C1001.771973,225.653458 1001.771973,227.900223 1001.771973,230.096634 
	C1008.921387,230.096634 1015.290833,230.096634 1021.925232,230.096634 
	C1021.925232,217.664246 1021.916870,205.693542 1021.928589,193.722885 
	C1021.934753,187.389664 1024.268799,184.561951 1030.561646,183.880035 
	C1033.794556,183.529709 1037.096680,183.818573 1040.675293,183.818573 
	C1040.675293,177.331985 1040.675293,171.411179 1040.675293,165.190186 
	C1032.386108,162.679565 1026.357910,166.120865 1022.352966,171.736023 
	C1020.836914,169.512909 1019.683228,166.007248 1018.057800,165.772858 
	C1012.880127,165.026184 1007.526917,165.496201 1001.771790,165.496201 
	C1001.771790,184.875336 1001.771790,203.653854 1001.771973,223.406708 
M509.971924,214.276932 
	C507.487152,209.513931 505.961761,204.589874 507.115814,198.629669 
	C522.345947,198.629669 537.266602,198.629669 553.075745,198.629669 
	C552.519897,193.462051 552.470154,188.801559 551.448364,184.364929 
	C549.242493,174.786697 543.805115,167.753311 533.881531,165.169022 
	C523.974792,162.589172 515.436401,165.312393 508.311127,172.525406 
	C498.458618,182.499268 495.957397,202.456528 502.775299,216.085663 
	C510.212189,230.952011 528.590759,236.546707 542.914307,228.042099 
	C546.043152,226.184296 548.537415,223.257584 551.753723,220.447647 
	C549.495361,218.862167 548.182129,217.940247 546.935730,217.065216 
	C533.129517,229.070023 520.053223,228.223587 509.971924,214.276932 
M354.144104,179.712967 
	C353.549652,181.087418 352.877533,182.433990 352.372711,183.840622 
	C346.920227,199.033478 350.551819,216.331360 361.062744,225.361115 
	C373.466400,236.016876 394.643036,233.302994 401.797302,219.834213 
	C400.545959,218.926453 399.252258,217.987976 398.024353,217.097214 
	C387.385223,225.924591 377.930878,227.680573 369.144989,222.624817 
	C361.238770,218.075226 356.576355,208.207199 358.279449,198.678040 
	C373.191132,198.678040 388.243134,198.678040 404.735870,198.678040 
	C403.278748,191.499329 402.816986,184.934494 400.567505,179.053497 
	C396.166199,167.546799 384.474396,162.139053 372.381256,164.981155 
	C364.227570,166.897400 358.512146,171.889114 354.144104,179.712967 
M463.143188,167.951752 
	C462.932770,167.145752 462.809113,165.676727 462.498566,165.636108 
	C459.326935,165.221039 456.548126,164.954041 455.103088,169.220322 
	C449.983978,184.334183 444.452087,199.308380 439.055695,214.327988 
	C438.491028,215.899658 437.787872,217.421570 436.729126,219.981949 
	C430.455200,202.629562 424.633484,186.533371 418.816162,170.435593 
	C416.756622,164.736343 416.190918,164.462204 410.054749,166.427307 
	C410.342957,167.350540 410.588531,168.294815 410.928772,169.203644 
	C418.040375,188.199219 425.161377,207.191269 432.284576,226.182495 
	C433.147186,228.482407 433.746765,231.609161 437.099823,230.428635 
	C438.843903,229.814590 440.685425,227.863831 441.365387,226.088806 
	C448.679352,206.995377 455.770386,187.816528 463.143188,167.951752 
M146.459656,268.419250 
	C150.350388,268.419250 154.241119,268.419250 158.251938,268.419250 
	C156.246933,255.570526 146.330276,247.775864 133.990585,248.516129 
	C123.666748,249.135468 114.453354,258.091248 114.085609,268.418304 
	C124.555077,268.418304 135.014191,268.418304 146.459656,268.419250 
M483.842651,172.628769 
	C483.842651,170.372681 483.842651,168.116577 483.842651,165.972382 
	C476.415436,164.970200 476.408600,164.970200 476.407196,171.583267 
	C476.403473,189.372284 476.398895,207.161301 476.417511,224.950302 
	C476.419342,226.708954 476.578705,228.467438 476.664978,230.226746 
	C479.319122,230.226746 481.392365,230.226746 483.842468,230.226746 
	C483.842468,211.109192 483.842468,192.351120 483.842651,172.628769 
M477.459595,142.722794 
	C474.256042,146.760986 474.836670,151.019943 478.878418,151.564896 
	C480.547424,151.789932 482.954529,150.958969 484.040741,149.734375 
	C484.963104,148.694580 485.224670,145.501114 484.444946,144.844650 
	C482.810944,143.468964 480.298920,143.136139 477.459595,142.722794 
z"/>
<path fill="#47BA86" opacity="1.000000" stroke="none" 
	d="
M135.000046,131.336151 
	C156.986588,131.336411 178.503174,132.046310 199.951187,131.137527 
	C221.539749,130.222778 232.534927,147.760696 234.594635,162.231003 
	C235.186630,166.390015 234.685379,170.704620 234.685379,176.398102 
	C224.903030,166.144150 214.358032,160.460236 201.229019,161.059464 
	C188.048981,161.660980 177.993546,168.260162 169.510941,178.630798 
	C160.657562,167.738159 149.873642,161.000259 135.972839,160.938843 
	C122.044380,160.877289 111.357742,167.805527 102.773270,178.263611 
	C98.704926,174.624435 95.410278,171.046036 91.522545,168.310547 
	C75.846756,157.280762 56.036800,158.855469 41.980118,171.868881 
	C40.749714,173.007965 39.080147,173.672668 37.614555,174.557709 
	C37.157925,172.895477 36.192505,171.191498 36.324963,169.577637 
	C37.407688,156.385880 41.020641,144.076385 52.744179,136.473145 
	C57.230988,133.563248 63.199451,131.702744 68.547028,131.571198 
	C90.519989,131.030655 112.513855,131.339523 135.000046,131.336151 
z"/>
<path fill="#45B986" opacity="1.000000" stroke="none" 
	d="
M701.600342,215.183624 
	C710.921204,212.833145 710.824402,214.123474 709.505981,198.567917 
	C705.140015,198.567917 700.713257,198.567917 695.871216,198.567917 
	C695.871216,193.555679 695.871216,189.024567 695.871216,184.205017 
	C707.467957,184.205017 718.888062,184.205017 730.763000,184.205017 
	C730.884033,185.674179 731.098633,187.102646 731.103638,188.531845 
	C731.135071,197.525711 730.959290,206.524048 731.199219,215.511642 
	C731.295288,219.110336 730.141907,221.510605 727.122986,223.346390 
	C712.451294,232.268112 696.834961,234.501740 680.657959,228.794235 
	C669.488037,224.853333 662.965759,216.000916 660.108398,204.702942 
	C657.166138,193.069397 657.068054,181.266922 660.015503,169.604233 
	C666.515869,143.883148 697.743469,132.771210 719.301880,148.401062 
	C726.219727,153.416519 730.767395,162.552994 730.620972,171.780609 
	C724.707214,171.780609 718.760925,171.911240 712.832520,171.644318 
	C711.908997,171.602722 710.673767,169.888214 710.251953,168.708115 
	C707.638367,161.395966 704.669983,158.848770 697.858154,158.464584 
	C690.434204,158.045868 685.243774,160.610260 682.722290,167.397873 
	C677.990540,180.135803 677.964661,193.284348 682.555481,205.994919 
	C685.565796,214.329529 693.088928,215.884888 701.600342,215.183624 
z"/>
<path fill="#44B885" opacity="1.000000" stroke="none" 
	d="
M835.961670,196.713989 
	C838.723938,187.241699 841.491577,178.171295 844.041077,169.039963 
	C844.792847,166.347397 846.013245,165.284531 848.904358,165.406723 
	C854.504639,165.643433 860.122070,165.475922 866.444275,165.475922 
	C865.826538,167.762909 865.505066,169.328568 864.984314,170.824860 
	C856.945190,193.923126 848.930542,217.030151 840.801453,240.096817 
	C836.254578,252.998947 826.963196,258.570099 814.686707,256.308105 
	C811.796814,255.775650 810.737000,254.640625 810.943298,251.725952 
	C811.176697,248.429810 810.997131,245.104431 810.997131,241.434769 
	C812.699158,241.240021 814.122437,241.097855 815.539917,240.911514 
	C822.492981,239.997406 826.138916,234.216125 823.854919,227.561874 
	C817.427307,208.835739 810.942932,190.129120 804.496643,171.409424 
	C803.917969,169.729004 803.452820,168.009491 802.690308,165.504578 
	C809.563049,165.504578 815.826050,165.319580 822.057617,165.679321 
	C823.147522,165.742233 824.601746,167.945923 825.043274,169.414734 
	C827.820190,178.652176 830.351196,187.963440 832.984497,197.244324 
	C833.295654,198.340988 833.734924,199.401306 834.381409,201.234192 
	C835.057495,199.370361 835.470581,198.231476 835.961670,196.713989 
z"/>
<path fill="#45B985" opacity="1.000000" stroke="none" 
	d="
M782.998840,204.556152 
	C775.696655,204.555832 768.893982,204.555832 761.639221,204.555832 
	C762.109680,209.771454 764.675171,212.932938 768.679932,214.582352 
	C776.624573,217.854492 783.645996,215.558258 790.387939,209.618011 
	C793.384583,213.164978 796.315918,216.634644 799.523193,220.430984 
	C790.769165,230.158066 780.039734,232.906540 768.036865,231.330109 
	C749.794800,228.934204 738.839722,214.351990 740.474060,195.385452 
	C741.629028,181.982101 746.452332,170.942596 760.119080,166.262131 
	C777.143677,160.431717 799.830994,166.570694 800.993164,193.836380 
	C801.134338,197.149277 801.012390,200.473419 801.012390,204.556473 
	C795.019775,204.556473 789.259094,204.556473 782.998840,204.556152 
M769.561279,191.890167 
	C773.319946,191.890167 777.078552,191.890167 780.738647,191.890167 
	C781.756531,184.413803 778.835632,180.408905 772.609985,180.056625 
	C765.854309,179.674347 761.680542,184.061218 761.737244,191.889755 
	C764.024963,191.889755 766.319214,191.889755 769.561279,191.890167 
z"/>
<path fill="#45B985" opacity="1.000000" stroke="none" 
	d="
M940.126892,220.859055 
	C930.125610,210.240768 931.152039,187.602966 938.374329,176.879547 
	C945.141602,166.831818 958.265259,162.219574 972.113098,165.274200 
	C983.012756,167.678497 991.286011,176.897934 992.832520,188.831650 
	C993.468201,193.736908 993.439575,198.728256 993.756775,204.472000 
	C980.187622,204.472000 967.179016,204.472000 953.732056,204.472000 
	C954.545166,210.017761 957.227478,213.135483 961.473938,214.880859 
	C967.974792,217.552856 974.883667,215.860535 982.643066,209.701599 
	C985.159912,212.646500 988.017883,215.421432 990.049011,218.707428 
	C990.673218,219.717224 989.553345,222.671997 988.353271,223.806656 
	C977.840576,233.746231 957.337646,234.442734 945.189697,225.435883 
	C943.463623,224.156189 941.958740,222.578262 940.126892,220.859055 
M953.994751,188.498184 
	C954.419434,189.621658 954.809448,191.706329 955.274048,191.723099 
	C961.344421,191.942184 967.425293,191.868622 973.438843,191.868622 
	C973.760376,183.593872 970.269714,179.816833 963.438049,180.027786 
	C958.269043,180.187378 955.774597,183.408661 953.994751,188.498184 
z"/>
<path fill="#46B987" opacity="1.000000" stroke="none" 
	d="
M896.004150,205.737854 
	C890.291260,203.788483 884.602112,202.608017 879.725342,199.941757 
	C868.146912,193.611420 867.126526,179.302155 877.188538,170.700073 
	C887.842773,161.591660 909.734924,162.231171 919.803223,172.033295 
	C923.374817,175.510437 925.543823,179.689819 925.191345,185.620010 
	C919.033447,185.620010 912.949280,185.694214 906.872681,185.514542 
	C906.205566,185.494812 905.283630,184.113937 904.988892,183.200211 
	C903.698608,179.199387 900.756104,177.776138 896.919128,177.944733 
	C893.586182,178.091187 890.534058,179.083786 889.889954,182.980118 
	C889.264526,186.763641 891.811096,188.468170 894.859009,189.370712 
	C900.430603,191.020569 906.193481,192.091278 911.657288,194.023590 
	C920.944580,197.308060 925.323242,203.254776 925.346802,211.583878 
	C925.368835,219.373810 920.803528,225.819824 912.024292,229.048340 
	C900.185303,233.402100 888.479309,233.222717 877.596069,226.029556 
	C871.807800,222.203857 868.904358,216.668869 868.793396,209.482819 
	C874.356995,209.482819 879.939636,209.370102 885.507263,209.608688 
	C886.309021,209.643066 887.286926,211.258820 887.759583,212.329742 
	C890.204285,217.868439 898.470764,220.222748 903.410767,216.691391 
	C906.690857,214.346512 906.798889,210.619843 903.340210,208.517319 
	C901.252930,207.248459 898.726318,206.702255 896.004150,205.737854 
z"/>
<path fill="#46BA85" opacity="1.000000" stroke="none" 
	d="
M154.707458,224.784927 
	C154.281387,228.365936 154.178604,231.570221 153.408142,234.604980 
	C153.129364,235.703018 150.882172,237.390823 150.159225,237.122528 
	C139.973373,233.342499 129.942352,233.825485 119.270538,238.217743 
	C118.418259,232.164764 117.603859,226.638931 116.868782,221.102585 
	C115.620491,211.700912 114.502930,202.281097 113.163727,192.892685 
	C112.615845,189.051758 113.933762,186.184067 116.519485,183.467529 
	C128.125015,171.274902 148.286163,172.494781 157.396576,186.180328 
	C158.456665,187.772766 158.921555,190.192062 158.714035,192.126266 
	C157.560089,202.881927 156.113327,213.606171 154.707458,224.784927 
z"/>
<path fill="#49BA88" opacity="1.000000" stroke="none" 
	d="
M333.563782,179.408356 
	C328.919556,184.451248 324.455536,189.158707 319.153748,194.749634 
	C325.323425,205.358582 332.351440,217.443466 339.573090,229.861328 
	C334.482544,231.337952 331.344910,230.760300 328.868622,226.075272 
	C323.894379,216.664322 318.151276,207.662674 313.021118,198.329590 
	C311.324982,195.243820 309.304504,194.178528 305.897705,194.353333 
	C300.749054,194.617493 295.565979,194.627594 290.418213,194.355072 
	C286.547333,194.150162 285.152069,195.354477 285.258362,199.400284 
	C285.524414,209.526611 285.346130,219.664612 285.346130,230.190704 
	C282.772430,230.190704 280.578186,230.190704 278.135071,230.190704 
	C278.135071,201.270874 278.135071,172.545700 278.135071,143.734619 
	C290.134674,143.734619 302.047882,142.520676 313.612091,144.012466 
	C332.038422,146.389465 340.086823,161.477005 333.563782,179.408356 
M320.855835,153.472458 
	C309.658508,146.891312 297.514069,150.785889 285.186737,149.572754 
	C285.186737,161.903702 285.125580,173.517075 285.302338,185.126816 
	C285.316528,186.059448 286.958038,187.751556 287.860748,187.763397 
	C295.676819,187.866013 303.524139,188.030655 311.308197,187.451721 
	C319.308563,186.856720 325.341492,182.596436 327.429230,174.676376 
	C329.489105,166.862000 328.385162,159.410385 320.855835,153.472458 
z"/>
<path fill="#49BA88" opacity="1.000000" stroke="none" 
	d="
M585.819214,229.893036 
	C581.408264,231.576080 579.379150,230.087631 578.174500,225.766678 
	C572.643127,205.926224 566.809204,186.170105 561.084778,166.386810 
	C567.476807,164.502319 568.179993,164.849228 569.730164,170.532074 
	C573.844604,185.615280 577.943481,200.702713 582.065002,215.783981 
	C582.268005,216.526825 582.627319,217.226929 583.297913,218.911636 
	C587.726440,204.864944 591.848572,191.802429 595.961243,178.736923 
	C597.010193,175.404572 597.759644,171.941284 599.184631,168.780670 
	C599.823975,167.362549 601.790894,165.686600 603.150146,165.691208 
	C604.499268,165.695755 606.616394,167.413834 607.068604,168.810440 
	C612.192383,184.634109 617.059570,200.540863 622.001404,216.423492 
	C622.236450,217.178757 622.526917,217.916763 623.257019,219.975311 
	C625.334595,212.363770 627.100403,205.983398 628.815613,199.589447 
	C631.401245,189.951004 634.256592,180.370010 636.392578,170.631958 
	C637.516602,165.507675 640.006470,164.487366 644.953369,166.019577 
	C644.594543,167.675644 644.324341,169.406342 643.841919,171.075714 
	C638.485291,189.612015 633.099426,208.139862 627.709778,226.666595 
	C627.114929,228.711304 626.817688,230.685059 623.690918,230.710449 
	C620.576050,230.735718 619.815979,229.143417 619.045227,226.727356 
	C613.952698,210.764938 608.762451,194.833694 602.488953,178.761429 
	C597.008118,195.701721 591.527283,212.641998 585.819214,229.893036 
z"/>
<path fill="#43B885" opacity="1.000000" stroke="none" 
	d="
M1001.771851,222.919556 
	C1001.771790,203.653854 1001.771790,184.875336 1001.771790,165.496201 
	C1007.526917,165.496201 1012.880127,165.026184 1018.057800,165.772858 
	C1019.683228,166.007248 1020.836914,169.512909 1022.352966,171.736023 
	C1026.357910,166.120865 1032.386108,162.679565 1040.675293,165.190186 
	C1040.675293,171.411179 1040.675293,177.331985 1040.675293,183.818573 
	C1037.096680,183.818573 1033.794556,183.529709 1030.561646,183.880035 
	C1024.268799,184.561951 1021.934753,187.389664 1021.928589,193.722885 
	C1021.916870,205.693542 1021.925232,217.664246 1021.925232,230.096634 
	C1015.290833,230.096634 1008.921387,230.096634 1001.771973,230.096634 
	C1001.771973,227.900223 1001.771973,225.653458 1001.771851,222.919556 
z"/>
<path fill="#50BD8D" opacity="1.000000" stroke="none" 
	d="
M510.155182,214.606384 
	C520.053223,228.223587 533.129517,229.070023 546.935730,217.065216 
	C548.182129,217.940247 549.495361,218.862167 551.753723,220.447647 
	C548.537415,223.257584 546.043152,226.184296 542.914307,228.042099 
	C528.590759,236.546707 510.212189,230.952011 502.775299,216.085663 
	C495.957397,202.456528 498.458618,182.499268 508.311127,172.525406 
	C515.436401,165.312393 523.974792,162.589172 533.881531,165.169022 
	C543.805115,167.753311 549.242493,174.786697 551.448364,184.364929 
	C552.470154,188.801559 552.519897,193.462051 553.075745,198.629669 
	C537.266602,198.629669 522.345947,198.629669 507.115814,198.629669 
	C505.961761,204.589874 507.487152,209.513931 510.155182,214.606384 
M519.295166,172.310379 
	C511.502747,176.484604 507.834900,183.140091 506.978271,191.968613 
	C519.927734,191.968613 532.302368,191.968613 544.641296,191.968613 
	C546.430786,177.266739 534.810791,167.988556 519.295166,172.310379 
z"/>
<path fill="#50BD8D" opacity="1.000000" stroke="none" 
	d="
M354.337097,179.397034 
	C358.512146,171.889114 364.227570,166.897400 372.381256,164.981155 
	C384.474396,162.139053 396.166199,167.546799 400.567505,179.053497 
	C402.816986,184.934494 403.278748,191.499329 404.735870,198.678040 
	C388.243134,198.678040 373.191132,198.678040 358.279449,198.678040 
	C356.576355,208.207199 361.238770,218.075226 369.144989,222.624817 
	C377.930878,227.680573 387.385223,225.924591 398.024353,217.097214 
	C399.252258,217.987976 400.545959,218.926453 401.797302,219.834213 
	C394.643036,233.302994 373.466400,236.016876 361.062744,225.361115 
	C350.551819,216.331360 346.920227,199.033478 352.372711,183.840622 
	C352.877533,182.433990 353.549652,181.087418 354.337097,179.397034 
M368.527039,192.259796 
	C377.634857,192.259796 386.742676,192.259796 396.200195,192.259796 
	C395.949677,184.009781 393.844177,177.382324 387.065186,173.270859 
	C380.822052,169.484421 374.178131,169.658875 368.125977,173.567886 
	C361.644623,177.754105 358.562256,184.104095 358.022766,192.260132 
	C361.590576,192.260132 364.565704,192.260132 368.527039,192.259796 
z"/>
<path fill="#49BA88" opacity="1.000000" stroke="none" 
	d="
M463.032806,168.306412 
	C455.770386,187.816528 448.679352,206.995377 441.365387,226.088806 
	C440.685425,227.863831 438.843903,229.814590 437.099823,230.428635 
	C433.746765,231.609161 433.147186,228.482407 432.284576,226.182495 
	C425.161377,207.191269 418.040375,188.199219 410.928772,169.203644 
	C410.588531,168.294815 410.342957,167.350540 410.054749,166.427307 
	C416.190918,164.462204 416.756622,164.736343 418.816162,170.435593 
	C424.633484,186.533371 430.455200,202.629562 436.729126,219.981949 
	C437.787872,217.421570 438.491028,215.899658 439.055695,214.327988 
	C444.452087,199.308380 449.983978,184.334183 455.103088,169.220322 
	C456.548126,164.954041 459.326935,165.221039 462.498566,165.636108 
	C462.809113,165.676727 462.932770,167.145752 463.032806,168.306412 
z"/>
<path fill="#4BBC89" opacity="1.000000" stroke="none" 
	d="
M145.966492,268.418762 
	C135.014191,268.418304 124.555077,268.418304 114.085609,268.418304 
	C114.453354,258.091248 123.666748,249.135468 133.990585,248.516129 
	C146.330276,247.775864 156.246933,255.570526 158.251938,268.419250 
	C154.241119,268.419250 150.350388,268.419250 145.966492,268.418762 
z"/>
<path fill="#49BA88" opacity="1.000000" stroke="none" 
	d="
M483.842560,173.110901 
	C483.842468,192.351120 483.842468,211.109192 483.842468,230.226746 
	C481.392365,230.226746 479.319122,230.226746 476.664978,230.226746 
	C476.578705,228.467438 476.419342,226.708954 476.417511,224.950302 
	C476.398895,207.161301 476.403473,189.372284 476.407196,171.583267 
	C476.408600,164.970200 476.415436,164.970200 483.842651,165.972382 
	C483.842651,168.116577 483.842651,170.372681 483.842560,173.110901 
z"/>
<path fill="#50BD8D" opacity="1.000000" stroke="none" 
	d="
M477.803528,142.548935 
	C480.298920,143.136139 482.810944,143.468964 484.444946,144.844650 
	C485.224670,145.501114 484.963104,148.694580 484.040741,149.734375 
	C482.954529,150.958969 480.547424,151.789932 478.878418,151.564896 
	C474.836670,151.019943 474.256042,146.760986 477.803528,142.548935 
z"/>
<path fill="#F1FAF6" opacity="1.000000" stroke="none" 
	d="
M769.087341,191.889954 
	C766.319214,191.889755 764.024963,191.889755 761.737244,191.889755 
	C761.680542,184.061218 765.854309,179.674347 772.609985,180.056625 
	C778.835632,180.408905 781.756531,184.413803 780.738647,191.890167 
	C777.078552,191.890167 773.319946,191.890167 769.087341,191.889954 
z"/>
<path fill="#F1FAF6" opacity="1.000000" stroke="none" 
	d="
M954.081909,188.131165 
	C955.774597,183.408661 958.269043,180.187378 963.438049,180.027786 
	C970.269714,179.816833 973.760376,183.593872 973.438843,191.868622 
	C967.425293,191.868622 961.344421,191.942184 955.274048,191.723099 
	C954.809448,191.706329 954.419434,189.621658 954.081909,188.131165 
z"/>
<path fill="#FBFEFD" opacity="1.000000" stroke="none" 
	d="
M321.152466,153.696106 
	C328.385162,159.410385 329.489105,166.862000 327.429230,174.676376 
	C325.341492,182.596436 319.308563,186.856720 311.308197,187.451721 
	C303.524139,188.030655 295.676819,187.866013 287.860748,187.763397 
	C286.958038,187.751556 285.316528,186.059448 285.302338,185.126816 
	C285.125580,173.517075 285.186737,161.903702 285.186737,149.572754 
	C297.514069,150.785889 309.658508,146.891312 321.152466,153.696106 
z"/>
<path fill="#FBFEFD" opacity="1.000000" stroke="none" 
	d="
M519.667175,172.163818 
	C534.810791,167.988556 546.430786,177.266739 544.641296,191.968613 
	C532.302368,191.968613 519.927734,191.968613 506.978271,191.968613 
	C507.834900,183.140091 511.502747,176.484604 519.667175,172.163818 
z"/>
<path fill="#FBFEFD" opacity="1.000000" stroke="none" 
	d="
M368.033936,192.259964 
	C364.565704,192.260132 361.590576,192.260132 358.022766,192.260132 
	C358.562256,184.104095 361.644623,177.754105 368.125977,173.567886 
	C374.178131,169.658875 380.822052,169.484421 387.065186,173.270859 
	C393.844177,177.382324 395.949677,184.009781 396.200195,192.259796 
	C386.742676,192.259796 377.634857,192.259796 368.033936,192.259964 
z"/>
</svg>