<svg width="256" height="256" viewBox="0 0 256 256" fill="none" xmlns="http://www.w3.org/2000/svg">
<g clip-path="url(#clip0_4875_44466)">
<path d="M195.621 56.5776H95.399C73.9585 56.5776 56.5775 73.9585 56.5775 95.399V195.621C56.5775 217.062 73.9585 234.443 95.399 234.443H195.621C217.062 234.443 234.443 217.062 234.443 195.621V95.399C234.443 73.9585 217.062 56.5776 195.621 56.5776Z" fill="#58C86F" stroke="black" stroke-width="15.8049" stroke-linecap="round" stroke-linejoin="round"/>
<path d="M160.898 21.8537H60.6751C39.2346 21.8537 21.8536 39.2347 21.8536 60.6752V160.898C21.8536 182.338 39.2346 199.719 60.6751 199.719H160.898C182.338 199.719 199.719 182.338 199.719 160.898V60.6752C199.719 39.2347 182.338 21.8537 160.898 21.8537Z" fill="white" stroke="black" stroke-width="15.8049" stroke-linecap="round" stroke-linejoin="round"/>
<path d="M110.79 173.292V90.6069" stroke="black" stroke-width="11.3561" stroke-linecap="round" stroke-linejoin="round"/>
<path d="M73.8107 87.2351H83.0048C98.3336 87.2351 110.782 99.6839 110.782 115.013V124.207H101.588C86.2594 124.207 73.8107 111.758 73.8107 96.4293V87.2351Z" fill="#F9B55C" stroke="black" stroke-width="12.9327" stroke-linecap="round" stroke-linejoin="round"/>
<path d="M73.8107 124.503H83.0048C98.3336 124.503 110.782 136.952 110.782 152.281V161.475H101.588C86.2594 161.475 73.8107 149.026 73.8107 133.698V124.503Z" fill="#F9B55C" stroke="black" stroke-width="12.9327" stroke-linecap="round" stroke-linejoin="round"/>
<path d="M119.992 124.207H110.798V115.013C110.798 99.6839 123.247 87.2351 138.576 87.2351H147.77V96.4293C147.77 111.758 135.321 124.207 119.992 124.207Z" fill="#F9B55C" stroke="black" stroke-width="12.9327" stroke-linecap="round" stroke-linejoin="round"/>
<path d="M119.992 161.483H110.798V152.289C110.798 136.96 123.247 124.511 138.576 124.511H147.77V133.705C147.77 149.034 135.321 161.483 119.992 161.483Z" fill="#F9B55C" stroke="black" stroke-width="12.9327" stroke-linecap="round" stroke-linejoin="round"/>
<path d="M117.292 94.0732L110.791 100.574L104.29 94.0732C93.4505 83.2341 93.4505 65.6289 104.29 54.7898L110.791 48.2885L117.292 54.7898C128.131 65.6289 128.131 83.2341 117.292 94.0732Z" fill="#F9B55C" stroke="black" stroke-width="12.9327" stroke-linecap="round" stroke-linejoin="round"/>
</g>
<defs>
<clipPath id="clip0_4875_44466">
<rect width="256" height="256" fill="white"/>
</clipPath>
</defs>
</svg>
