<svg height="511pt" viewBox="0 0 511 511.99984" width="511pt" xmlns="http://www.w3.org/2000/svg"><path d="m507.925781 4.578125c-2.976562-2.980469-7.054687-4.6601562-11.242187-4.57421875-1.832032.02343755-45.53125.73046875-103.136719 14.99609375-53.484375 13.246094-129.445313 41.234375-187.5625 99.351562-6.753906 6.757813-13.085937 13.761719-19.054687 20.9375-47.125-6.394531-92.414063 6.839844-132.101563 38.886719-33.832031 27.316407-51.597656 58.644531-52.335937 59.964844-2.625 4.6875-2.65625 10.390625-.089844 15.109375 2.570312 4.714844 7.382812 7.777344 12.746094 8.113281l88.648437 5.535157-24.289063 24.289062c-2.929687 2.929688-4.574218 6.902344-4.574218 11.046875 0 4.140625 1.644531 8.113281 4.574218 11.042969l12.277344 12.277344c-.167968.167968-.347656.332031-.515625.5-52.648437 52.652343-54.28125 134.234374-54.324219 137.683593-.054687 4.210938 1.597657 8.265625 4.574219 11.242188 2.929688 2.929687 6.902344 4.574219 11.042969 4.574219h.199219c3.449219-.042969 85.03125-1.675782 137.679687-54.328126.171875-.167968.335938-.34375.5-.515624l12.28125 12.28125c2.929688 2.929687 6.902344 4.574218 11.042969 4.574218 4.144531 0 8.117187-1.644531 11.046875-4.574218l24.289062-24.292969 5.535157 88.652343c.332031 5.359376 3.398437 10.171876 8.117187 12.742188 2.328125 1.273438 4.898438 1.90625 7.472656 1.90625 2.628907 0 5.261719-.664062 7.632813-1.992188 1.320313-.742187 32.648437-18.503906 59.964844-52.335937 32.046875-39.691406 45.285156-84.976563 38.890625-132.101563 7.171875-5.964843 14.179687-12.300781 20.933594-19.054687 58.121093-58.117187 86.105468-134.074219 99.351562-187.5625 14.265625-57.601563 14.972656-101.304687 14.996094-103.136719.054687-4.207031-1.59375-8.261718-4.570313-11.238281zm-395.285156 293.65625 26.679687-26.679687 101.625 101.625-26.679687 26.679687zm.71875 45.914063c.171875-.171876.339844-.339844.511719-.507813l54.988281 54.992187c-.167969.167969-.335937.339844-.503906.507813-30.363281 30.363281-74.464844 40.34375-98.601563 43.609375 3.265625-24.148438 13.25-68.242188 43.605469-98.601562zm153.414063 10.679687-109.105469-109.105469c15.527343-37.972656 37.96875-76.84375 70.40625-109.28125 43.199219-43.199218 97.847656-68.300781 143.347656-82.753906l87.390625 87.394531c-14.453125 45.496094-39.550781 100.144531-82.753906 143.34375-32.828125 32.828125-72.273438 55.203125-109.285156 70.402344zm201.40625-247.515625-62.992188-62.992188c31.621094-7.542968 58.691406-10.75 75.097656-12.105468-1.355468 16.410156-4.5625 43.480468-12.105468 75.097656zm-392.953126 90.546875c27.847657-22.234375 57.914063-33.246094 89.742188-32.953125-14.871094 22.492188-26.628906 45.804688-35.898438 68.269531l-84.046874-5.246093c7.46875-9.144532 17.59375-20 30.203124-30.070313zm239.417969 239.414063c-10.074219 12.609374-20.929687 22.738281-30.074219 30.207031l-5.246093-84.050781c22.464843-9.273438 45.777343-21.027344 68.269531-35.898438.296875 31.832031-10.714844 61.898438-32.949219 89.742188zm0 0"/><path d="m373.09375 139.40625c-11.882812-11.886719-27.6875-18.429688-44.492188-18.429688-16.808593 0-32.613281 6.542969-44.496093 18.429688-24.535157 24.535156-24.535157 64.453125 0 88.988281 11.882812 11.886719 27.6875 18.433594 44.496093 18.433594 16.804688 0 32.605469-6.546875 44.492188-18.433594 11.886719-11.882812 18.429688-27.6875 18.429688-44.492187 0-16.808594-6.542969-32.613282-18.429688-44.496094zm-22.089844 66.898438c-5.984375 5.988281-13.941406 9.28125-22.402344 9.28125-8.464843 0-16.421874-3.292969-22.410156-9.277344-12.351562-12.355469-12.351562-32.457032 0-44.8125 5.988282-5.984375 13.945313-9.28125 22.410156-9.28125 8.460938 0 16.417969 3.296875 22.402344 9.28125s9.28125 13.941406 9.28125 22.40625-3.296875 16.417968-9.28125 22.402344zm0 0"/></svg>